<svg xmlns="http://www.w3.org/2000/svg" width="260" height="195" font-family="Helvetica,Arial,sans-serif">
<g transform="translate(42,22)">
<text x="104" y="-7" text-anchor="middle" font-size="8" font-weight="bold" fill="#264653">Sensitivity to M=K (N=8192)</text>
<line x1="0" x2="208" y1="135" y2="135" stroke="#e9ecef" stroke-width="0.4"/>
<text x="-6" y="138" text-anchor="end" font-size="6" fill="#888">0</text>
<line x1="0" x2="208" y1="115.71428571428572" y2="115.71428571428572" stroke="#e9ecef" stroke-width="0.4"/>
<line x1="0" x2="208" y1="96.42857142857143" y2="96.42857142857143" stroke="#e9ecef" stroke-width="0.4"/>
<text x="-6" y="99.42857142857143" text-anchor="end" font-size="6" fill="#888">400</text>
<line x1="0" x2="208" y1="77.14285714285714" y2="77.14285714285714" stroke="#e9ecef" stroke-width="0.4"/>
<line x1="0" x2="208" y1="57.85714285714286" y2="57.85714285714286" stroke="#e9ecef" stroke-width="0.4"/>
<text x="-6" y="60.85714285714286" text-anchor="end" font-size="6" fill="#888">800</text>
<line x1="0" x2="208" y1="38.57142857142857" y2="38.57142857142857" stroke="#e9ecef" stroke-width="0.4"/>
<line x1="0" x2="208" y1="19.285714285714292" y2="19.285714285714292" stroke="#e9ecef" stroke-width="0.4"/>
<text x="-6" y="22.285714285714292" text-anchor="end" font-size="6" fill="#888">1200</text>
<line x1="0" x2="208" y1="0" y2="0" stroke="#e9ecef" stroke-width="0.4"/>
<line x1="0" y1="0" x2="0" y2="135" stroke="#264653" stroke-width="0.6"/>
<line x1="0" y1="135" x2="208" y2="135" stroke="#264653" stroke-width="0.6"/>
<line x1="0" y1="135" x2="0" y2="139" stroke="#264653"/>
<text x="0" y="148" text-anchor="middle" font-size="5.5" fill="#666">256</text>
<line x1="69.33333333333334" y1="135" x2="69.33333333333334" y2="139" stroke="#264653"/>
<text x="69.33333333333334" y="148" text-anchor="middle" font-size="5.5" fill="#666">1K</text>
<line x1="124.2787000250001" y1="135" x2="124.2787000250001" y2="139" stroke="#264653"/>
<text x="124.2787000250001" y="148" text-anchor="middle" font-size="5.5" fill="#666">3K</text>
<line x1="158.94536669166678" y1="135" x2="158.94536669166678" y2="139" stroke="#264653"/>
<text x="158.94536669166678" y="148" text-anchor="middle" font-size="5.5" fill="#666">6K</text>
<line x1="193.61203335833346" y1="135" x2="193.61203335833346" y2="139" stroke="#264653"/>
<text x="193.61203335833346" y="148" text-anchor="middle" font-size="5.5" fill="#666">12K</text>
<line x1="208" y1="135" x2="208" y2="139" stroke="#264653"/>
<text x="208" y="148" text-anchor="middle" font-size="5.5" fill="#666">16K</text>
<text x="104" y="162" text-anchor="middle" font-size="7" fill="#264653">M = K</text>
<text transform="rotate(-90)" x="-67.5" y="-32" text-anchor="middle" font-size="7" fill="#264653">TFLOPS</text>
<polyline points="0.0,127.6 34.7,116.3 69.3,90.3 104.0,49.5 124.3,27.2 138.7,22.4 158.9,28.6 173.3,29.8 193.6,39.3 208.0,41.9" fill="none" stroke="#2a9d8f" stroke-width="1.5" />
<circle cx="0.0" cy="127.6" r="2.5" fill="#2a9d8f"/>
<circle cx="34.7" cy="116.3" r="2.5" fill="#2a9d8f"/>
<circle cx="69.3" cy="90.3" r="2.5" fill="#2a9d8f"/>
<circle cx="104.0" cy="49.5" r="2.5" fill="#2a9d8f"/>
<circle cx="124.3" cy="27.2" r="2.5" fill="#2a9d8f"/>
<circle cx="138.7" cy="22.4" r="2.5" fill="#2a9d8f"/>
<circle cx="158.9" cy="28.6" r="2.5" fill="#2a9d8f"/>
<circle cx="173.3" cy="29.8" r="2.5" fill="#2a9d8f"/>
<circle cx="193.6" cy="39.3" r="2.5" fill="#2a9d8f"/>
<circle cx="208.0" cy="41.9" r="2.5" fill="#2a9d8f"/>
<polyline points="0.0,122.8 34.7,115.8 69.3,89.6 104.0,54.3 124.3,50.7 138.7,50.9 158.9,49.8 173.3,43.8 193.6,48.1 208.0,41.5" fill="none" stroke="#e63946" stroke-width="1.5" stroke-dasharray="4,2"/>
<rect x="-2" y="120.8" width="4" height="4" fill="#e63946" transform="rotate(45,0.0,122.8)"/>
<rect x="32.7" y="113.8" width="4" height="4" fill="#e63946" transform="rotate(45,34.7,115.8)"/>
<rect x="67.3" y="87.6" width="4" height="4" fill="#e63946" transform="rotate(45,69.3,89.6)"/>
<rect x="102" y="52.3" width="4" height="4" fill="#e63946" transform="rotate(45,104.0,54.3)"/>
<rect x="122.3" y="48.7" width="4" height="4" fill="#e63946" transform="rotate(45,124.3,50.7)"/>
<rect x="136.7" y="48.9" width="4" height="4" fill="#e63946" transform="rotate(45,138.7,50.9)"/>
<rect x="156.9" y="47.8" width="4" height="4" fill="#e63946" transform="rotate(45,158.9,49.8)"/>
<rect x="171.3" y="41.8" width="4" height="4" fill="#e63946" transform="rotate(45,173.3,43.8)"/>
<rect x="191.6" y="46.1" width="4" height="4" fill="#e63946" transform="rotate(45,193.6,48.1)"/>
<rect x="206" y="39.5" width="4" height="4" fill="#e63946" transform="rotate(45,208.0,41.5)"/>
<line x1="153" y1="5" x2="168" y2="5" stroke="#2a9d8f" stroke-width="1.5"/>
<circle cx="160.5" cy="5" r="2.5" fill="#2a9d8f"/>
<text x="171" y="8" font-size="6.5">Ours</text>
<line x1="153" y1="17" x2="168" y2="17" stroke="#e63946" stroke-width="1.5" stroke-dasharray="4,2"/>
<text x="171" y="20" font-size="6.5">cuSPARSELt</text>
</g></svg>